<mxfile host="app.diagrams.net" agent="Mozilla/5.0 (Windows NT 10.0; Win64; x64; rv:133.0) Gecko/20100101 Firefox/133.0" version="25.0.3">
  <diagram name="페이지-1" id="RkVI5y8J5DB0yL2tTm_h">
    <mxGraphModel dx="934" dy="765" grid="1" gridSize="10" guides="1" tooltips="1" connect="1" arrows="1" fold="1" page="1" pageScale="1" pageWidth="1654" pageHeight="1169" math="0" shadow="0">
      <root>
        <mxCell id="0" />
        <mxCell id="1" parent="0" />
        <mxCell id="KrB_xeFLvAn7sgXn6RUX-1" value="&lt;div&gt;Home.jsp&lt;/div&gt;" style="swimlane;fontStyle=0;childLayout=stackLayout;horizontal=1;startSize=30;horizontalStack=0;resizeParent=1;resizeParentMax=0;resizeLast=0;collapsible=1;marginBottom=0;whiteSpace=wrap;html=1;" vertex="1" parent="1">
          <mxGeometry x="270" y="310" width="140" height="120" as="geometry">
            <mxRectangle x="430" y="270" width="90" height="30" as="alternateBounds" />
          </mxGeometry>
        </mxCell>
        <mxCell id="KrB_xeFLvAn7sgXn6RUX-2" value="Login" style="text;strokeColor=none;fillColor=none;align=left;verticalAlign=middle;spacingLeft=4;spacingRight=4;overflow=hidden;points=[[0,0.5],[1,0.5]];portConstraint=eastwest;rotatable=0;whiteSpace=wrap;html=1;" vertex="1" parent="KrB_xeFLvAn7sgXn6RUX-1">
          <mxGeometry y="30" width="140" height="30" as="geometry" />
        </mxCell>
        <mxCell id="KrB_xeFLvAn7sgXn6RUX-3" value="Menu Toggle" style="text;strokeColor=none;fillColor=none;align=left;verticalAlign=middle;spacingLeft=4;spacingRight=4;overflow=hidden;points=[[0,0.5],[1,0.5]];portConstraint=eastwest;rotatable=0;whiteSpace=wrap;html=1;" vertex="1" parent="KrB_xeFLvAn7sgXn6RUX-1">
          <mxGeometry y="60" width="140" height="30" as="geometry" />
        </mxCell>
        <mxCell id="KrB_xeFLvAn7sgXn6RUX-4" value="DarkMode Toggle" style="text;strokeColor=none;fillColor=none;align=left;verticalAlign=middle;spacingLeft=4;spacingRight=4;overflow=hidden;points=[[0,0.5],[1,0.5]];portConstraint=eastwest;rotatable=0;whiteSpace=wrap;html=1;" vertex="1" parent="KrB_xeFLvAn7sgXn6RUX-1">
          <mxGeometry y="90" width="140" height="30" as="geometry" />
        </mxCell>
        <mxCell id="KrB_xeFLvAn7sgXn6RUX-5" value="Login.jsp" style="swimlane;fontStyle=0;childLayout=stackLayout;horizontal=1;startSize=30;horizontalStack=0;resizeParent=1;resizeParentMax=0;resizeLast=0;collapsible=1;marginBottom=0;whiteSpace=wrap;html=1;" vertex="1" parent="1">
          <mxGeometry x="490" y="310" width="140" height="120" as="geometry" />
        </mxCell>
        <mxCell id="KrB_xeFLvAn7sgXn6RUX-6" value="로그인" style="text;strokeColor=none;fillColor=none;align=left;verticalAlign=middle;spacingLeft=4;spacingRight=4;overflow=hidden;points=[[0,0.5],[1,0.5]];portConstraint=eastwest;rotatable=0;whiteSpace=wrap;html=1;" vertex="1" parent="KrB_xeFLvAn7sgXn6RUX-5">
          <mxGeometry y="30" width="140" height="30" as="geometry" />
        </mxCell>
        <mxCell id="KrB_xeFLvAn7sgXn6RUX-7" value="회원가입" style="text;strokeColor=default;fillColor=none;align=left;verticalAlign=middle;spacingLeft=4;spacingRight=4;overflow=hidden;points=[[0,0.5],[1,0.5]];portConstraint=eastwest;rotatable=0;whiteSpace=wrap;html=1;dashed=1;" vertex="1" parent="KrB_xeFLvAn7sgXn6RUX-5">
          <mxGeometry y="60" width="140" height="30" as="geometry" />
        </mxCell>
        <mxCell id="KrB_xeFLvAn7sgXn6RUX-8" value="아이디 /&amp;nbsp; 비밀번호 찾기" style="text;strokeColor=none;fillColor=none;align=left;verticalAlign=middle;spacingLeft=4;spacingRight=4;overflow=hidden;points=[[0,0.5],[1,0.5]];portConstraint=eastwest;rotatable=0;whiteSpace=wrap;html=1;" vertex="1" parent="KrB_xeFLvAn7sgXn6RUX-5">
          <mxGeometry y="90" width="140" height="30" as="geometry" />
        </mxCell>
        <mxCell id="KrB_xeFLvAn7sgXn6RUX-9" style="edgeStyle=orthogonalEdgeStyle;rounded=0;orthogonalLoop=1;jettySize=auto;html=1;entryX=0.5;entryY=0;entryDx=0;entryDy=0;" edge="1" parent="1" source="KrB_xeFLvAn7sgXn6RUX-10" target="KrB_xeFLvAn7sgXn6RUX-1">
          <mxGeometry relative="1" as="geometry">
            <Array as="points">
              <mxPoint x="750" y="290" />
              <mxPoint x="340" y="290" />
            </Array>
          </mxGeometry>
        </mxCell>
        <mxCell id="KrB_xeFLvAn7sgXn6RUX-10" value="LoginCheck.jsp" style="swimlane;fontStyle=0;childLayout=stackLayout;horizontal=1;startSize=30;horizontalStack=0;resizeParent=1;resizeParentMax=0;resizeLast=0;collapsible=1;marginBottom=0;whiteSpace=wrap;html=1;" vertex="1" parent="1">
          <mxGeometry x="680" y="310" width="140" height="60" as="geometry" />
        </mxCell>
        <mxCell id="KrB_xeFLvAn7sgXn6RUX-11" value="로그인 정보 확인" style="text;strokeColor=none;fillColor=none;align=left;verticalAlign=middle;spacingLeft=4;spacingRight=4;overflow=hidden;points=[[0,0.5],[1,0.5]];portConstraint=eastwest;rotatable=0;whiteSpace=wrap;html=1;" vertex="1" parent="KrB_xeFLvAn7sgXn6RUX-10">
          <mxGeometry y="30" width="140" height="30" as="geometry" />
        </mxCell>
        <mxCell id="KrB_xeFLvAn7sgXn6RUX-12" style="edgeStyle=orthogonalEdgeStyle;rounded=0;orthogonalLoop=1;jettySize=auto;html=1;exitX=1;exitY=0.5;exitDx=0;exitDy=0;entryX=-0.019;entryY=0.125;entryDx=0;entryDy=0;entryPerimeter=0;" edge="1" parent="1" source="KrB_xeFLvAn7sgXn6RUX-2" target="KrB_xeFLvAn7sgXn6RUX-5">
          <mxGeometry relative="1" as="geometry" />
        </mxCell>
        <mxCell id="KrB_xeFLvAn7sgXn6RUX-13" style="edgeStyle=orthogonalEdgeStyle;rounded=0;orthogonalLoop=1;jettySize=auto;html=1;entryX=0.5;entryY=0;entryDx=0;entryDy=0;" edge="1" parent="1" source="KrB_xeFLvAn7sgXn6RUX-14" target="KrB_xeFLvAn7sgXn6RUX-20">
          <mxGeometry relative="1" as="geometry" />
        </mxCell>
        <mxCell id="KrB_xeFLvAn7sgXn6RUX-14" value="MemberVO" style="swimlane;fontStyle=0;childLayout=stackLayout;horizontal=1;startSize=30;horizontalStack=0;resizeParent=1;resizeParentMax=0;resizeLast=0;collapsible=1;marginBottom=0;whiteSpace=wrap;html=1;" vertex="1" parent="1">
          <mxGeometry x="880" y="230" width="140" height="150" as="geometry" />
        </mxCell>
        <mxCell id="KrB_xeFLvAn7sgXn6RUX-15" value="ID" style="text;strokeColor=none;fillColor=none;align=left;verticalAlign=middle;spacingLeft=4;spacingRight=4;overflow=hidden;points=[[0,0.5],[1,0.5]];portConstraint=eastwest;rotatable=0;whiteSpace=wrap;html=1;" vertex="1" parent="KrB_xeFLvAn7sgXn6RUX-14">
          <mxGeometry y="30" width="140" height="30" as="geometry" />
        </mxCell>
        <mxCell id="KrB_xeFLvAn7sgXn6RUX-16" value="PassWord" style="text;strokeColor=default;fillColor=none;align=left;verticalAlign=middle;spacingLeft=4;spacingRight=4;overflow=hidden;points=[[0,0.5],[1,0.5]];portConstraint=eastwest;rotatable=0;whiteSpace=wrap;html=1;dashed=1;" vertex="1" parent="KrB_xeFLvAn7sgXn6RUX-14">
          <mxGeometry y="60" width="140" height="30" as="geometry" />
        </mxCell>
        <mxCell id="KrB_xeFLvAn7sgXn6RUX-17" value="E-mail" style="text;strokeColor=default;fillColor=none;align=left;verticalAlign=middle;spacingLeft=4;spacingRight=4;overflow=hidden;points=[[0,0.5],[1,0.5]];portConstraint=eastwest;rotatable=0;whiteSpace=wrap;html=1;dashed=1;" vertex="1" parent="KrB_xeFLvAn7sgXn6RUX-14">
          <mxGeometry y="90" width="140" height="30" as="geometry" />
        </mxCell>
        <mxCell id="KrB_xeFLvAn7sgXn6RUX-18" value="Phone" style="text;strokeColor=default;fillColor=none;align=left;verticalAlign=middle;spacingLeft=4;spacingRight=4;overflow=hidden;points=[[0,0.5],[1,0.5]];portConstraint=eastwest;rotatable=0;whiteSpace=wrap;html=1;dashed=1;" vertex="1" parent="KrB_xeFLvAn7sgXn6RUX-14">
          <mxGeometry y="120" width="140" height="30" as="geometry" />
        </mxCell>
        <mxCell id="KrB_xeFLvAn7sgXn6RUX-19" style="edgeStyle=orthogonalEdgeStyle;rounded=0;orthogonalLoop=1;jettySize=auto;html=1;entryX=0;entryY=0.5;entryDx=0;entryDy=0;" edge="1" parent="1" source="KrB_xeFLvAn7sgXn6RUX-6" target="KrB_xeFLvAn7sgXn6RUX-11">
          <mxGeometry relative="1" as="geometry" />
        </mxCell>
        <mxCell id="KrB_xeFLvAn7sgXn6RUX-20" value="MemberDAO" style="swimlane;fontStyle=0;childLayout=stackLayout;horizontal=1;startSize=30;horizontalStack=0;resizeParent=1;resizeParentMax=0;resizeLast=0;collapsible=1;marginBottom=0;whiteSpace=wrap;html=1;" vertex="1" parent="1">
          <mxGeometry x="880" y="400" width="140" height="220" as="geometry" />
        </mxCell>
        <mxCell id="KrB_xeFLvAn7sgXn6RUX-21" value="DB에 해당 아이디가 존재하는지, 존재한다면 비밀번호가 맞는지 확인" style="text;strokeColor=none;fillColor=none;align=left;verticalAlign=middle;spacingLeft=4;spacingRight=4;overflow=hidden;points=[[0,0.5],[1,0.5]];portConstraint=eastwest;rotatable=0;whiteSpace=wrap;html=1;" vertex="1" parent="KrB_xeFLvAn7sgXn6RUX-20">
          <mxGeometry y="30" width="140" height="70" as="geometry" />
        </mxCell>
        <mxCell id="KrB_xeFLvAn7sgXn6RUX-22" value="DB에 중복된 아이디가 존재하는지 확인" style="text;strokeColor=default;fillColor=none;align=left;verticalAlign=middle;spacingLeft=4;spacingRight=4;overflow=hidden;points=[[0,0.5],[1,0.5]];portConstraint=eastwest;rotatable=0;whiteSpace=wrap;html=1;dashed=1;" vertex="1" parent="KrB_xeFLvAn7sgXn6RUX-20">
          <mxGeometry y="100" width="140" height="40" as="geometry" />
        </mxCell>
        <mxCell id="KrB_xeFLvAn7sgXn6RUX-23" value="전화번호에 해당하는 아이디 반환" style="text;strokeColor=none;fillColor=none;align=left;verticalAlign=middle;spacingLeft=4;spacingRight=4;overflow=hidden;points=[[0,0.5],[1,0.5]];portConstraint=eastwest;rotatable=0;whiteSpace=wrap;html=1;" vertex="1" parent="KrB_xeFLvAn7sgXn6RUX-20">
          <mxGeometry y="140" width="140" height="40" as="geometry" />
        </mxCell>
        <mxCell id="KrB_xeFLvAn7sgXn6RUX-24" value="해당 아이디에 맞는 이메일로 확인 메일을 보냄" style="text;strokeColor=default;fillColor=none;align=left;verticalAlign=middle;spacingLeft=4;spacingRight=4;overflow=hidden;points=[[0,0.5],[1,0.5]];portConstraint=eastwest;rotatable=0;whiteSpace=wrap;html=1;dashed=1;" vertex="1" parent="KrB_xeFLvAn7sgXn6RUX-20">
          <mxGeometry y="180" width="140" height="40" as="geometry" />
        </mxCell>
        <mxCell id="KrB_xeFLvAn7sgXn6RUX-25" style="edgeStyle=orthogonalEdgeStyle;rounded=0;orthogonalLoop=1;jettySize=auto;html=1;entryX=0;entryY=0.5;entryDx=0;entryDy=0;startArrow=classic;startFill=1;" edge="1" parent="1" source="KrB_xeFLvAn7sgXn6RUX-11" target="KrB_xeFLvAn7sgXn6RUX-21">
          <mxGeometry relative="1" as="geometry" />
        </mxCell>
        <mxCell id="KrB_xeFLvAn7sgXn6RUX-26" value="Register.jsp" style="swimlane;fontStyle=0;childLayout=stackLayout;horizontal=1;startSize=30;horizontalStack=0;resizeParent=1;resizeParentMax=0;resizeLast=0;collapsible=1;marginBottom=0;whiteSpace=wrap;html=1;" vertex="1" parent="1">
          <mxGeometry x="490" y="450" width="140" height="60" as="geometry" />
        </mxCell>
        <mxCell id="KrB_xeFLvAn7sgXn6RUX-27" value="&lt;div&gt;회원가입에 필요한 &lt;br&gt;&lt;/div&gt;&lt;div&gt;정보 입력&lt;/div&gt;" style="text;strokeColor=none;fillColor=none;align=left;verticalAlign=middle;spacingLeft=4;spacingRight=4;overflow=hidden;points=[[0,0.5],[1,0.5]];portConstraint=eastwest;rotatable=0;whiteSpace=wrap;html=1;" vertex="1" parent="KrB_xeFLvAn7sgXn6RUX-26">
          <mxGeometry y="30" width="140" height="30" as="geometry" />
        </mxCell>
        <mxCell id="KrB_xeFLvAn7sgXn6RUX-28" style="edgeStyle=orthogonalEdgeStyle;rounded=0;orthogonalLoop=1;jettySize=auto;html=1;entryX=-0.008;entryY=0.146;entryDx=0;entryDy=0;entryPerimeter=0;" edge="1" parent="1">
          <mxGeometry relative="1" as="geometry">
            <mxPoint x="490" y="390" as="sourcePoint" />
            <mxPoint x="488.88" y="463.76" as="targetPoint" />
            <Array as="points">
              <mxPoint x="470" y="390" />
              <mxPoint x="470" y="464" />
              <mxPoint x="480" y="464" />
            </Array>
          </mxGeometry>
        </mxCell>
        <mxCell id="KrB_xeFLvAn7sgXn6RUX-29" style="edgeStyle=orthogonalEdgeStyle;rounded=0;orthogonalLoop=1;jettySize=auto;html=1;" edge="1" parent="1" source="KrB_xeFLvAn7sgXn6RUX-30">
          <mxGeometry relative="1" as="geometry">
            <mxPoint x="660" y="290" as="targetPoint" />
            <Array as="points">
              <mxPoint x="750" y="420" />
              <mxPoint x="660" y="420" />
            </Array>
          </mxGeometry>
        </mxCell>
        <mxCell id="KrB_xeFLvAn7sgXn6RUX-30" value="RegisterCheck.jsp" style="swimlane;fontStyle=0;childLayout=stackLayout;horizontal=1;startSize=30;horizontalStack=0;resizeParent=1;resizeParentMax=0;resizeLast=0;collapsible=1;marginBottom=0;whiteSpace=wrap;html=1;" vertex="1" parent="1">
          <mxGeometry x="680" y="450" width="140" height="60" as="geometry" />
        </mxCell>
        <mxCell id="KrB_xeFLvAn7sgXn6RUX-31" value="회원가입 정보 확인" style="text;strokeColor=none;fillColor=none;align=left;verticalAlign=middle;spacingLeft=4;spacingRight=4;overflow=hidden;points=[[0,0.5],[1,0.5]];portConstraint=eastwest;rotatable=0;whiteSpace=wrap;html=1;" vertex="1" parent="KrB_xeFLvAn7sgXn6RUX-30">
          <mxGeometry y="30" width="140" height="30" as="geometry" />
        </mxCell>
        <mxCell id="KrB_xeFLvAn7sgXn6RUX-32" style="edgeStyle=orthogonalEdgeStyle;rounded=0;orthogonalLoop=1;jettySize=auto;html=1;entryX=0;entryY=0.5;entryDx=0;entryDy=0;startArrow=classic;startFill=1;" edge="1" parent="1" source="KrB_xeFLvAn7sgXn6RUX-31" target="KrB_xeFLvAn7sgXn6RUX-22">
          <mxGeometry relative="1" as="geometry">
            <Array as="points">
              <mxPoint x="850" y="495" />
              <mxPoint x="850" y="520" />
            </Array>
          </mxGeometry>
        </mxCell>
        <mxCell id="KrB_xeFLvAn7sgXn6RUX-33" style="edgeStyle=orthogonalEdgeStyle;rounded=0;orthogonalLoop=1;jettySize=auto;html=1;exitX=1;exitY=0.5;exitDx=0;exitDy=0;entryX=0;entryY=0.5;entryDx=0;entryDy=0;" edge="1" parent="1" source="KrB_xeFLvAn7sgXn6RUX-27" target="KrB_xeFLvAn7sgXn6RUX-31">
          <mxGeometry relative="1" as="geometry" />
        </mxCell>
        <mxCell id="KrB_xeFLvAn7sgXn6RUX-34" value="FindMyIdPw.jsp" style="swimlane;fontStyle=0;childLayout=stackLayout;horizontal=1;startSize=30;horizontalStack=0;resizeParent=1;resizeParentMax=0;resizeLast=0;collapsible=1;marginBottom=0;whiteSpace=wrap;html=1;" vertex="1" parent="1">
          <mxGeometry x="490" y="530" width="140" height="90" as="geometry" />
        </mxCell>
        <mxCell id="KrB_xeFLvAn7sgXn6RUX-35" value="아이디 찾기" style="text;strokeColor=none;fillColor=none;align=left;verticalAlign=middle;spacingLeft=4;spacingRight=4;overflow=hidden;points=[[0,0.5],[1,0.5]];portConstraint=eastwest;rotatable=0;whiteSpace=wrap;html=1;" vertex="1" parent="KrB_xeFLvAn7sgXn6RUX-34">
          <mxGeometry y="30" width="140" height="30" as="geometry" />
        </mxCell>
        <mxCell id="KrB_xeFLvAn7sgXn6RUX-36" value="비밀번호 찾기" style="text;strokeColor=default;fillColor=none;align=left;verticalAlign=middle;spacingLeft=4;spacingRight=4;overflow=hidden;points=[[0,0.5],[1,0.5]];portConstraint=eastwest;rotatable=0;whiteSpace=wrap;html=1;dashed=1;" vertex="1" parent="KrB_xeFLvAn7sgXn6RUX-34">
          <mxGeometry y="60" width="140" height="30" as="geometry" />
        </mxCell>
        <mxCell id="KrB_xeFLvAn7sgXn6RUX-37" style="edgeStyle=orthogonalEdgeStyle;rounded=0;orthogonalLoop=1;jettySize=auto;html=1;entryX=-0.006;entryY=0.202;entryDx=0;entryDy=0;entryPerimeter=0;" edge="1" parent="1" source="KrB_xeFLvAn7sgXn6RUX-8" target="KrB_xeFLvAn7sgXn6RUX-34">
          <mxGeometry relative="1" as="geometry">
            <Array as="points">
              <mxPoint x="450" y="415" />
              <mxPoint x="450" y="548" />
            </Array>
          </mxGeometry>
        </mxCell>
        <mxCell id="KrB_xeFLvAn7sgXn6RUX-38" value="FindCheck.jsp" style="swimlane;fontStyle=0;childLayout=stackLayout;horizontal=1;startSize=30;horizontalStack=0;resizeParent=1;resizeParentMax=0;resizeLast=0;collapsible=1;marginBottom=0;whiteSpace=wrap;html=1;" vertex="1" parent="1">
          <mxGeometry x="680" y="530" width="140" height="90" as="geometry" />
        </mxCell>
        <mxCell id="KrB_xeFLvAn7sgXn6RUX-39" value="&lt;div&gt;전화번호 입력&lt;/div&gt;" style="text;strokeColor=none;fillColor=none;align=left;verticalAlign=middle;spacingLeft=4;spacingRight=4;overflow=hidden;points=[[0,0.5],[1,0.5]];portConstraint=eastwest;rotatable=0;whiteSpace=wrap;html=1;" vertex="1" parent="KrB_xeFLvAn7sgXn6RUX-38">
          <mxGeometry y="30" width="140" height="30" as="geometry" />
        </mxCell>
        <mxCell id="KrB_xeFLvAn7sgXn6RUX-40" value="아이디와 전화번호 입력 " style="text;strokeColor=default;fillColor=none;align=left;verticalAlign=middle;spacingLeft=4;spacingRight=4;overflow=hidden;points=[[0,0.5],[1,0.5]];portConstraint=eastwest;rotatable=0;whiteSpace=wrap;html=1;dashed=1;" vertex="1" parent="KrB_xeFLvAn7sgXn6RUX-38">
          <mxGeometry y="60" width="140" height="30" as="geometry" />
        </mxCell>
        <mxCell id="KrB_xeFLvAn7sgXn6RUX-41" style="edgeStyle=orthogonalEdgeStyle;rounded=0;orthogonalLoop=1;jettySize=auto;html=1;exitX=1;exitY=0.5;exitDx=0;exitDy=0;entryX=0;entryY=0.5;entryDx=0;entryDy=0;startArrow=classic;startFill=1;" edge="1" parent="1" source="KrB_xeFLvAn7sgXn6RUX-35" target="KrB_xeFLvAn7sgXn6RUX-39">
          <mxGeometry relative="1" as="geometry" />
        </mxCell>
        <mxCell id="KrB_xeFLvAn7sgXn6RUX-42" style="edgeStyle=orthogonalEdgeStyle;rounded=0;orthogonalLoop=1;jettySize=auto;html=1;entryX=0;entryY=0.5;entryDx=0;entryDy=0;" edge="1" parent="1" source="KrB_xeFLvAn7sgXn6RUX-36" target="KrB_xeFLvAn7sgXn6RUX-40">
          <mxGeometry relative="1" as="geometry" />
        </mxCell>
        <mxCell id="KrB_xeFLvAn7sgXn6RUX-43" value="&lt;div&gt;Member&lt;/div&gt;&lt;div&gt;DB&lt;br&gt;&lt;/div&gt;" style="shape=cylinder3;whiteSpace=wrap;html=1;boundedLbl=1;backgroundOutline=1;size=15;" vertex="1" parent="1">
          <mxGeometry x="1070" y="470" width="60" height="80" as="geometry" />
        </mxCell>
        <mxCell id="KrB_xeFLvAn7sgXn6RUX-44" style="edgeStyle=orthogonalEdgeStyle;rounded=0;orthogonalLoop=1;jettySize=auto;html=1;entryX=0;entryY=0.5;entryDx=0;entryDy=0;entryPerimeter=0;startArrow=classic;startFill=1;" edge="1" parent="1" source="KrB_xeFLvAn7sgXn6RUX-20" target="KrB_xeFLvAn7sgXn6RUX-43">
          <mxGeometry relative="1" as="geometry" />
        </mxCell>
        <mxCell id="KrB_xeFLvAn7sgXn6RUX-45" style="edgeStyle=orthogonalEdgeStyle;rounded=0;orthogonalLoop=1;jettySize=auto;html=1;entryX=0;entryY=0.5;entryDx=0;entryDy=0;" edge="1" parent="1" source="KrB_xeFLvAn7sgXn6RUX-39" target="KrB_xeFLvAn7sgXn6RUX-23">
          <mxGeometry relative="1" as="geometry" />
        </mxCell>
        <mxCell id="KrB_xeFLvAn7sgXn6RUX-46" style="edgeStyle=orthogonalEdgeStyle;rounded=0;orthogonalLoop=1;jettySize=auto;html=1;exitX=1;exitY=0.5;exitDx=0;exitDy=0;entryX=0;entryY=0.5;entryDx=0;entryDy=0;" edge="1" parent="1" source="KrB_xeFLvAn7sgXn6RUX-40" target="KrB_xeFLvAn7sgXn6RUX-24">
          <mxGeometry relative="1" as="geometry">
            <Array as="points">
              <mxPoint x="850" y="605" />
              <mxPoint x="850" y="600" />
            </Array>
          </mxGeometry>
        </mxCell>
      </root>
    </mxGraphModel>
  </diagram>
</mxfile>
